<?xml version="1.0" standalone="no"?>
<!DOCTYPE svg PUBLIC "-//W3C//DTD SVG 20010904//EN"
 "http://www.w3.org/TR/2001/REC-SVG-20010904/DTD/svg10.dtd">
<svg version="1.0" xmlns="http://www.w3.org/2000/svg"
 width="300.000000pt" height="281.000000pt" viewBox="0 0 300.000000 281.000000"
 preserveAspectRatio="xMidYMid meet">
<metadata>
Created by potrace 1.10, written by Peter Selinger 2001-2011
</metadata>
<g transform="translate(0.000000,281.000000) scale(0.100000,-0.100000)"
fill="#FFFFFF" stroke="none">
<path d="M1207 2764 c-3 -3 -81 -7 -174 -9 -184 -3 -225 -8 -293 -31 -68 -24
-224 -102 -249 -125 -12 -11 -27 -17 -34 -13 -6 4 -10 4 -7 1 4 -3 -27 -40
-66 -82 -40 -41 -76 -84 -79 -95 -4 -11 -10 -20 -14 -20 -6 0 -55 -77 -56 -90
0 -3 -6 -15 -13 -27 -7 -13 -24 -67 -39 -120 -21 -80 -26 -128 -30 -263 -5
-158 -4 -166 17 -192 l21 -28 161 0 c152 0 162 1 187 23 25 22 26 24 26 144 0
68 2 123 5 123 3 0 6 15 7 34 5 96 109 238 213 291 105 53 120 55 481 55 l336
0 24 26 c23 24 24 29 23 191 0 212 11 201 -198 198 -83 -1 -162 2 -176 5 -14
4 -35 3 -48 -1 -15 -6 -21 -5 -17 1 7 11 2 13 -8 4z m413 -214 l0 -170 -317 0
c-175 0 -347 -5 -383 -10 -129 -21 -256 -106 -324 -218 -54 -89 -66 -146 -66
-304 l0 -138 -172 0 -173 0 3 157 c3 241 41 379 138 515 110 155 294 276 489
324 35 9 166 13 428 13 l377 1 0 -170z"/>
<path d="M1807 2762 c-38 -2 -54 -9 -73 -30 l-23 -27 0 -746 c0 -451 -4 -756
-10 -771 -20 -53 -75 -90 -128 -88 -15 0 -23 0 -136 -1 -82 0 -91 -2 -112 -25
-22 -24 -23 -33 -24 -173 -2 -165 5 -194 52 -211 35 -12 151 -12 327 -1 110 7
133 12 190 39 120 57 205 155 229 262 3 14 6 402 6 863 0 551 3 837 10 837 6
0 3 5 -5 10 -8 5 -12 10 -8 10 4 0 -3 11 -15 24 -21 23 -32 25 -128 28 -57 2
-126 2 -152 0z m261 -1072 l-3 -705 -28 -57 c-34 -68 -96 -126 -187 -171 l-65
-32 -222 -3 -223 -4 0 171 0 171 135 0 c93 0 146 4 168 14 39 16 82 61 96 99
8 19 11 275 11 787 l0 759 158 3 157 3 3 -165 c1 -91 1 -482 0 -870z"/>
<path d="M2178 2693 c-25 -28 -25 -31 -26 -196 -1 -96 3 -177 8 -188 6 -10 34
-34 63 -53 120 -80 166 -191 173 -411 5 -177 -5 -169 209 -169 217 0 206 -10
205 185 -1 167 -3 195 -13 205 -4 4 -7 17 -7 28 -1 34 -57 185 -84 227 -14 21
-26 42 -26 45 0 4 -20 32 -45 62 -25 31 -49 60 -53 66 -12 19 -120 106 -131
106 -5 0 -14 6 -18 13 -4 6 -20 18 -35 26 -15 8 -36 22 -47 32 -10 10 -21 16
-23 13 -3 -2 -25 5 -49 16 -58 26 -71 25 -101 -7z m77 -23 c136 -47 302 -182
387 -315 93 -144 123 -254 134 -483 l7 -162 -177 0 -176 0 0 138 c0 141 -14
212 -56 294 -29 57 -91 124 -138 149 l-45 24 -3 187 c-2 104 0 188 3 188 3 0
32 -9 64 -20z"/>
<path d="M1215 2152 c-47 -4 -136 -34 -180 -61 -44 -26 -124 -109 -125 -128 0
-7 -3 -13 -8 -13 -4 0 -16 -19 -27 -42 -19 -42 -20 -65 -19 -916 l1 -873 22
-22 c20 -21 30 -22 176 -22 141 0 156 2 174 20 19 19 20 41 24 799 l3 779 28
23 c30 26 44 28 203 24 56 -1 111 1 122 5 42 13 51 53 51 219 0 216 13 205
-230 208 -102 2 -198 2 -215 0z m405 -212 l0 -180 -155 0 c-162 0 -190 -6
-227 -46 -15 -17 -16 -91 -20 -814 l-3 -795 -163 3 -162 3 2 877 3 877 24 46
c26 53 83 118 123 144 15 9 57 27 95 41 63 22 82 24 276 24 l207 0 0 -180z"/>
<path d="M178 1622 c-62 -5 -68 -22 -68 -207 1 -173 4 -186 55 -205 18 -7 130
-10 308 -9 l280 1 23 23 c23 23 24 29 24 189 0 157 -1 166 -22 186 -17 15 -36
20 -82 20 -34 1 -155 2 -271 3 -116 1 -227 1 -247 -1z m584 -209 l-3 -178
-304 3 -304 3 -3 170 c-2 94 -1 173 1 175 2 2 142 4 310 4 l306 0 -3 -177z"/>
<path d="M2217 1622 c-11 -2 -27 -12 -38 -23 -17 -17 -19 -35 -19 -183 0 -231
-31 -210 315 -216 298 -5 337 -1 352 43 4 12 6 25 5 30 -1 4 3 7 9 7 8 0 8 4
2 13 -6 6 -9 23 -7 37 1 14 4 71 5 127 2 111 -10 148 -54 158 -26 6 -544 12
-570 7z m588 -46 c0 0 -1 -76 -3 -168 l-3 -168 -302 0 -302 0 0 175 -1 175
306 -6 c168 -4 305 -7 305 -8z"/>
<path d="M166 1131 c-14 -16 -17 -39 -15 -152 2 -164 17 -256 59 -360 72 -178
163 -287 336 -402 70 -46 121 -72 176 -88 21 -5 33 -3 50 11 22 18 23 23 22
188 -1 102 -6 177 -13 190 -6 11 -38 47 -72 79 -57 54 -96 108 -91 126 1 4 -2
7 -6 7 -5 0 -15 19 -22 43 -7 23 -16 53 -20 67 -4 14 -8 67 -8 118 0 50 -1
105 -1 120 -1 16 -10 38 -21 50 -20 21 -29 22 -189 22 -152 0 -170 -2 -185
-19z m365 -173 c4 -127 9 -162 27 -207 32 -75 72 -130 142 -193 l60 -55 0
-176 c0 -98 -3 -177 -6 -177 -24 0 -184 88 -250 138 -102 77 -173 162 -230
277 -63 128 -84 220 -91 400 l-6 150 174 -2 174 -3 6 -152z"/>
<path d="M2422 1127 c-20 -21 -22 -34 -22 -129 0 -123 -17 -190 -75 -293 -56
-100 -129 -159 -229 -186 -22 -6 -48 -15 -57 -19 -9 -5 -30 -7 -47 -6 -18 1
-32 0 -32 -3 0 -3 -136 -5 -303 -3 l-303 3 -24 -26 c-24 -26 -25 -33 -28 -189
l-4 -163 31 -22 c30 -22 34 -22 383 -18 326 4 359 6 433 26 139 38 208 68 300
131 46 32 172 158 209 210 31 43 96 168 102 195 2 11 8 29 13 40 10 19 25 84
38 155 3 19 6 88 7 152 1 110 0 118 -23 142 -24 26 -25 26 -186 26 -156 0
-162 -1 -183 -23z m355 -165 c-10 -285 -83 -453 -276 -635 -100 -93 -217 -155
-365 -192 -96 -24 -109 -25 -453 -25 l-355 0 6 23 c3 12 6 88 6 170 l0 147
303 0 c166 0 332 5 369 10 194 28 330 143 400 340 15 41 21 87 24 185 2 72 4
130 4 130 0 0 77 -1 171 -3 l172 -3 -6 -147z"/>
</g>
</svg>