<?xml version="1.0" encoding="UTF-8"?>
<svg version="1.1" xmlns="http://www.w3.org/2000/svg" width="512" height="512">
<path d="M0 0 C45.54 0 91.08 0 138 0 C138 9.24 138 18.48 138 28 C90.975 28.495 90.975 28.495 43 29 C47.62 34.61 52.24 40.22 57 46 C62.6875 53.25 62.6875 53.25 65.35546875 56.671875 C67.98993332 60.01790855 70.73136857 63.26471232 73.5 66.5 C78.20302756 71.99797588 82.69429962 77.63719346 87.140625 83.34375 C90.28860713 87.38166801 93.48567414 91.37972152 96.6875 95.375 C97.21722412 96.03612793 97.74694824 96.69725586 98.29272461 97.37841797 C99.52797622 98.91935176 100.76390873 100.45973968 102 102 C100.46057911 106.83817994 97.68630306 110.15786859 94.5 114 C93.40264593 115.34684219 92.30630653 116.69451166 91.2109375 118.04296875 C90.39254395 119.047229 90.39254395 119.047229 89.55761719 120.07177734 C87.36638153 122.78437597 85.24368327 125.54272635 83.125 128.3125 C79.12683643 133.5386068 75.10255193 138.743692 71.0625 143.9375 C70.4634082 144.70795654 69.86431641 145.47841309 69.24707031 146.2722168 C66.13986781 150.26423783 63.02375236 154.24866005 59.88208008 158.21362305 C53.43792014 166.38652571 47.25621194 174.65838408 41 183 C75.98 183 110.96 183 147 183 C147 191.91 147 200.82 147 210 C98.16 210 49.32 210 -1 210 C-1 189 -1 189 2.3125 184.0625 C3.87481943 182.70812501 5.43733607 181.35397749 7 180 C8.75734745 177.85642234 10.45397245 175.70782802 12.125 173.5 C16.31980909 168.08426394 20.62848567 162.77387479 25 157.5 C29.23660669 152.38539349 33.42087165 147.24113524 37.5 142 C42.14987511 136.02553138 46.94856849 130.18375919 51.77783203 124.35375977 C57.30703756 117.66337509 62.67685819 110.85490302 68 104 C63.97953696 98.45828068 59.68478182 93.20335674 55.24536133 87.99584961 C50.75380039 82.72545793 46.36956244 77.37189934 42 72 C40.50056908 70.16620121 39.00056542 68.33287057 37.5 66.5 C35.30774854 63.8210008 33.11580532 61.14175792 30.92578125 58.4609375 C25.69388444 52.05887523 20.44074948 45.67455423 15.18212891 39.29443359 C10.96512422 34.17666473 6.76289183 29.04724617 2.57421875 23.90625 C1.14127035 22.1096146 1.14127035 22.1096146 0 21 C0 14.07 0 7.14 0 0 Z " fill="#FFFFFF" transform="translate(184,160)"/>
<path d="M0 0 C10.43380317 6.55403175 20.71198996 13.34553792 31 20.125 C31.9526474 20.75239075 32.9052948 21.37978149 33.8868103 22.02618408 C44.84006379 29.24315946 55.76879891 36.49476081 66.64453125 43.828125 C67.58124161 44.45921173 68.51795197 45.09029846 69.48304749 45.74050903 C74.0781351 48.84034773 78.66242955 51.95457279 83.22973633 55.09521484 C90.60140357 60.14759323 97.8824318 65.11945703 105.8046875 69.2734375 C119.80570335 76.77750949 119.80570335 76.77750949 122.07763672 82.90771484 C123.57075548 90.19007712 124.06060156 98.08749815 121 105 C118.33034029 107.91276242 115.26926285 109.84015991 111.887146 111.85409546 C108.96399155 113.62908052 106.1402546 115.54918083 103.29737854 117.44918823 C99.81918672 119.76755561 96.31958126 122.052735 92.82156372 124.34103394 C73.56642207 136.94183588 54.44430329 149.73127032 35.38876343 162.63142395 C32.12254572 164.84153685 28.85436644 167.04873114 25.58526611 169.25457764 C23.76327486 170.4846809 21.94219171 171.71612973 20.12176514 172.94854736 C17.20797443 174.9195583 14.29001031 176.88424666 11.37109375 178.84765625 C10.46367935 179.46305771 9.55626495 180.07845917 8.62135315 180.71250916 C7.36523476 181.55489891 7.36523476 181.55489891 6.08374023 182.41430664 C5.34212143 182.91450821 4.60050262 183.41470978 3.83641052 183.93006897 C2 185 2 185 0 185 C-1.8639289 174.6954891 -3.13884441 164.14637625 0 154 C5.36191349 146.81035635 14.05567399 142.95683298 21.8611908 138.89102173 C31.33229135 133.91012442 40.09957987 127.84016109 48.9732666 121.88092041 C53.60732916 118.77728182 58.26973549 115.71690912 62.9296875 112.65234375 C67.79442693 109.4498026 72.65447276 106.24212149 77.47753906 102.97705078 C78.16341095 102.51408096 78.84928284 102.05111115 79.55593872 101.57411194 C80.80782694 100.72736151 82.0571569 99.87680916 83.30319214 99.02146912 C86.43021602 96.90805219 89.43485259 95.24975498 93 94 C89.99542872 90.77959856 86.84728943 88.42901157 83.15625 86.03515625 C82.57108109 85.65344772 81.98591217 85.2717392 81.38301086 84.87846375 C80.10165563 84.04336798 78.81886319 83.21047429 77.53482056 82.3795166 C74.7255133 80.56122148 71.92349512 78.73182085 69.12080383 76.90335083 C67.58738671 75.90317628 66.05359265 74.90357943 64.51945496 73.9045105 C55.23223223 67.85526273 45.97414496 61.76182726 36.71875 55.66403198 C32.95902085 53.18790576 29.19708149 50.71514993 25.43412781 48.243927 C23.67751436 47.08395676 21.92574981 45.9166051 20.17927551 44.74142456 C16.46589326 42.24468539 12.78299905 39.83153252 8.8425293 37.70727539 C5.43948183 35.80691742 2.60262533 33.96469737 0 31 C-1.51050904 25.52259146 -1.25388744 20.54997516 -0.8125 14.9375 C-0.74717553 13.48528677 -0.68787971 12.03278919 -0.63476562 10.58007812 C-0.49259608 7.04740284 -0.26908927 3.52554709 0 0 Z " fill="#FFFFFF" transform="translate(353,171)"/>
<path d="M0 0 C0.27402638 4.26791292 0.47239009 8.53105996 0.60424805 12.80517578 C0.65924048 14.25497637 0.73407754 15.70417573 0.82983398 17.15185547 C1.58985369 28.94638594 1.58985369 28.94638594 -1.82958984 33.36328125 C-4.17450865 35.11483089 -6.54873256 36.58615205 -9.12689209 37.96856689 C-11.98758964 39.54381952 -14.71421556 41.31891201 -17.46569824 43.07608032 C-19.90128624 44.63012618 -22.34999699 46.16204243 -24.79931641 47.69433594 C-33.91193532 53.44284287 -42.78073166 59.56483829 -51.6875 65.625 C-55.35577107 68.12059797 -59.02586765 70.61344719 -62.69921875 73.1015625 C-63.57714081 73.69640442 -64.45506287 74.29124634 -65.35958862 74.90411377 C-71.52518836 79.05994035 -77.7692914 83.06590598 -84.13249207 86.91275024 C-87.09676502 88.72035534 -89.61062392 90.48878486 -92 93 C-64.70305962 111.65187733 -64.70305962 111.65187733 -37 129.6875 C-36.20432617 130.20787842 -35.40865234 130.72825684 -34.58886719 131.2644043 C-30.36412378 134.00654875 -26.11447831 136.48111452 -21.61546326 138.75282288 C-1.98620834 148.78700211 -1.98620834 148.78700211 0.70172119 155.84173584 C2.98585171 165.31169278 1.58419461 175.53455002 0 185 C-5.01843966 183.33648707 -9.05754874 180.436874 -13.3828125 177.48046875 C-14.21318527 176.91849792 -15.04355804 176.3565271 -15.89909363 175.77752686 C-18.64400375 173.9184828 -21.38442658 172.05292985 -24.125 170.1875 C-26.05198404 168.88108509 -27.97931706 167.57518478 -29.90698242 166.26977539 C-33.92456924 163.54843295 -37.94063113 160.82486215 -41.95556641 158.09960938 C-48.67210112 153.54209071 -55.39568914 148.99505233 -62.12797546 144.46083069 C-66.65835893 141.40920845 -71.18057067 138.34695762 -75.68530273 135.25756836 C-83.76433653 129.73530462 -91.84103934 124.42166879 -100.3671875 119.61328125 C-102.48220902 118.37579433 -104.59281894 117.13116142 -106.70175171 115.8833313 C-108.61230983 114.79291348 -110.5556427 113.81523847 -112.52270508 112.83178711 C-117.36650078 109.95519023 -120.1564941 107.72768983 -121.81661987 102.35925293 C-123.33642709 94.81556676 -123.53610906 87.33768253 -121 80 C-116.40072383 73.17656898 -108.71780627 69.60893525 -101.6875 65.75 C-99.68179346 64.55739608 -97.68210114 63.35462535 -95.68823242 62.14233398 C-91.5485555 59.63298702 -87.38815717 57.16482234 -83.20996094 54.72021484 C-74.38039063 49.49777794 -65.94667679 43.70581065 -57.49398804 37.90060425 C-53.08306708 34.87700972 -48.64792803 31.88939645 -44.21484375 28.8984375 C-43.36201309 28.32199997 -42.50918243 27.74556244 -41.63050842 27.1516571 C-33.45924216 21.62872308 -25.27112876 16.13116268 -17.06942749 10.65353394 C-15.61737889 9.683462 -14.16589267 8.71254767 -12.71499634 7.74075317 C-10.74642336 6.4225162 -8.77589664 5.10725931 -6.8046875 3.79296875 C-6.22469498 3.40392365 -5.64470245 3.01487854 -5.0471344 2.61404419 C-1.11464713 0 -1.11464713 0 0 0 Z " fill="#FFFFFF" transform="translate(159,171)"/>
</svg>