<?xml version="1.0" encoding="UTF-8"?>
<svg version="1.1" xmlns="http://www.w3.org/2000/svg" width="512" height="300">
<path d="M0 0 C48.18 0 96.36 0 146 0 C146 13.86 146 27.72 146 42 C118.94 42.33 91.88 42.66 64 43 C68.29 47.95 72.58 52.9 77 58 C81.5625 63.5625 81.5625 63.5625 83.69140625 66.19140625 C86.41344559 69.50299049 89.20156784 72.75297759 92 76 C99.58154002 84.80606636 106.92223008 93.78296843 114 103 C111.50454127 107.50903578 108.40351159 111.30424511 105.125 115.25 C100.4832548 120.89296983 95.96689188 126.60758101 91.5625 132.4375 C86.02448277 139.75267363 80.25719845 146.85232679 74.38671875 153.90234375 C70.53841612 158.55847922 66.77354233 163.28307209 63 168 C93.03 168.33 123.06 168.66 154 169 C154 182.86 154 196.72 154 211 C102.85 211 51.7 211 -1 211 C-1 180 -1 180 4.9375 171.25 C8.5546875 167.92578125 8.5546875 167.92578125 10.35058594 166.43212891 C12.74940112 164.34932106 14.62019161 161.94243278 16.5625 159.4375 C19.97136988 155.22801481 23.46399068 151.10239029 27 147 C31.29858761 142.01202262 35.5029471 136.96097808 39.65234375 131.84765625 C42.40947684 128.50331345 45.23143525 125.21924203 48.0625 121.9375 C52.84410613 116.3933232 57.48423748 110.76423803 62 105 C58.11579354 99.54687877 53.87073049 94.57552263 49.35546875 89.63671875 C46.98625312 86.9846117 44.73516359 84.26567362 42.5 81.5 C39.5918662 77.9052235 36.61458668 74.41739372 33.5 71 C29.68073516 66.80539362 26.08935918 62.46907583 22.5234375 58.05859375 C19.02679724 53.82040594 15.4131272 49.68739447 11.78027344 45.56567383 C-3.2056729 28.45120089 0 29.02043347 0 0 Z " fill="#FFFFFF" transform="translate(180,54)"/>
<path d="M0 0 C5.10270445 2.78339797 10.11333947 5.61771856 14.96875 8.8203125 C16.02586182 9.51495605 17.08297363 10.20959961 18.17211914 10.92529297 C19.27031982 11.65119629 20.36852051 12.37709961 21.5 13.125 C22.66047769 13.88856098 23.82120636 14.65174064 24.98217773 15.41455078 C26.71692175 16.55437603 28.45154767 17.69437399 30.18540955 18.83554077 C34.79709174 21.8705612 39.42413479 24.88096416 44.0625 27.875 C44.72830078 28.30506348 45.39410156 28.73512695 46.08007812 29.17822266 C47.39326338 30.02624076 48.70657503 30.87406317 50.02001953 31.72167969 C53.51520305 33.97824946 57.00739253 36.23944609 60.5 38.5 C61.91665358 39.41668689 63.33332022 40.3333536 64.75 41.25 C67.58333333 43.08333333 70.41666667 44.91666667 73.25 46.75 C73.9510083 47.20358887 74.6520166 47.65717773 75.37426758 48.12451172 C76.79339311 49.042779 78.21250114 49.96107335 79.6315918 50.87939453 C83.13549597 53.14679201 86.63968595 55.41374501 90.14453125 57.6796875 C98.06055715 62.79827193 105.97067416 67.92586306 113.875 73.0625 C114.73778564 73.62308105 115.60057129 74.18366211 116.48950195 74.76123047 C117.29476318 75.28475098 118.10002441 75.80827148 118.9296875 76.34765625 C119.64366699 76.81179932 120.35764648 77.27594238 121.09326172 77.75415039 C122.73494552 78.82681524 124.36830385 79.91220257 126 81 C126.40430466 83.60019635 126.61157341 85.95597905 126.6796875 88.5703125 C126.70153107 89.32537079 126.72337463 90.08042908 126.74588013 90.85836792 C126.78301977 92.46040985 126.81099421 94.06268622 126.83056641 95.66503906 C126.87452881 98.09891364 126.99310937 100.52199353 127.11328125 102.953125 C127.41917457 114.27790892 127.41917457 114.27790892 123.73754883 118.74536133 C120.91836426 120.81659404 118.12579218 122.43763897 115 124 C113.77092454 124.77625819 112.54916668 125.56440837 111.33984375 126.37109375 C109.65568359 127.39396484 109.65568359 127.39396484 107.9375 128.4375 C100.55893707 132.97228964 93.30378544 137.68728624 86.0625 142.4375 C84.92448425 143.18368288 83.78646343 143.92985804 82.6484375 144.67602539 C80.44035521 146.12390994 78.2323671 147.57193786 76.02441406 149.02001953 C70.02648024 152.94666171 64.00350709 156.83446505 57.97998047 160.72167969 C54.48479695 162.97824946 50.99260747 165.23944609 47.5 167.5 C46.08334642 168.41668689 44.66667978 169.3333536 43.25 170.25 C42.54875 170.70375 41.8475 171.1575 41.125 171.625 C39 173 36.875 174.375 34.75 175.75 C34.0477832 176.2044751 33.34556641 176.6589502 32.62207031 177.12719727 C31.21553644 178.03710753 29.80863946 178.94645677 28.40136719 179.85522461 C24.70138455 182.24561942 21.00955003 184.64751142 17.328125 187.06640625 C16.56177734 187.56785156 15.79542969 188.06929687 15.00585938 188.5859375 C13.54126132 189.5445835 12.0788821 190.50663118 10.61914062 191.47265625 C9.95591797 191.90578125 9.29269531 192.33890625 8.609375 192.78515625 C8.03155273 193.16551025 7.45373047 193.54586426 6.85839844 193.93774414 C4.64979203 195.20017799 2.37626117 196.09984697 0 197 C-3.85907661 157.68255777 -3.85907661 157.68255777 1.96875 147.59082031 C7.25937384 142.45328166 13.76170665 139.92551907 20.59130859 137.38867188 C26.27265097 135.07414133 31.20532983 131.67383485 36.3125 128.3125 C38.30546899 127.06011777 40.30152037 125.81262589 42.30078125 124.5703125 C48.31145782 120.80870747 54.30732705 117.0239449 60.29931641 113.23266602 C67.84746652 108.4583915 75.42100433 103.72511178 83 99 C75.72053162 93.75541161 68.22750617 88.97093916 60.5625 84.3125 C58.24236261 82.89506793 55.92383557 81.47501322 53.60546875 80.0546875 C52.74952118 79.53076668 52.74952118 79.53076668 51.87628174 78.9962616 C46.26887285 75.56030961 40.70802172 72.05364605 35.15625 68.52880859 C30.66159872 65.67695624 26.15516507 62.84529352 21.63671875 60.03125 C20.54633301 59.35199463 19.45594727 58.67273926 18.33251953 57.97290039 C16.19509669 56.64247675 14.05678679 55.31347689 11.91748047 53.98608398 C10.45979248 53.07838257 10.45979248 53.07838257 8.97265625 52.15234375 C7.67726929 51.3478479 7.67726929 51.3478479 6.35571289 50.52709961 C5.57832764 50.02315674 4.80094238 49.51921387 4 49 C3.30077927 48.56762024 2.60155853 48.13524048 1.88114929 47.6897583 C0 46 0 46 -0.48101807 43.89289856 C-0.47213562 43.08237534 -0.46325317 42.27185211 -0.45410156 41.43676758 C-0.45379944 40.51603958 -0.45349731 39.59531158 -0.45318604 38.64668274 C-0.43254089 37.65597275 -0.41189575 36.66526276 -0.390625 35.64453125 C-0.38496521 34.62775803 -0.37930542 33.6109848 -0.37347412 32.56340027 C-0.35106519 29.31262328 -0.30085942 26.06294441 -0.25 22.8125 C-0.22994089 20.61004195 -0.2116891 18.40756664 -0.1953125 16.20507812 C-0.1511858 10.8030101 -0.08422889 5.40158349 0 0 Z " fill="#FFFFFF" transform="translate(350,59)"/>
<path d="M0 0 C0.25431993 6.42206854 0.42897096 12.84283363 0.54931641 19.26879883 C0.5994955 21.45256054 0.66765942 23.63598807 0.75439453 25.81860352 C1.45154421 43.81736774 1.45154421 43.81736774 -1.83325195 48.7565918 C-4.4683953 50.63141933 -7.00786246 51.78140807 -10 53 C-12.01709458 54.22409302 -14.01534945 55.47963987 -15.99609375 56.76171875 C-18.14153888 58.0730819 -20.28873705 59.38158044 -22.4375 60.6875 C-24.75763739 62.10493207 -27.07616443 63.52498678 -29.39453125 64.9453125 C-29.96516296 65.29459305 -30.53579468 65.6438736 -31.12371826 66.0037384 C-36.73112715 69.43969039 -42.29197828 72.94635395 -47.84375 76.47119141 C-52.33840128 79.32304376 -56.84483493 82.15470648 -61.36328125 84.96875 C-62.45366699 85.64800537 -63.54405273 86.32726074 -64.66748047 87.02709961 C-66.80490331 88.35752325 -68.94321321 89.68652311 -71.08251953 91.01391602 C-72.05431152 91.61905029 -73.02610352 92.22418457 -74.02734375 92.84765625 C-74.89093506 93.38398682 -75.75452637 93.92031738 -76.64428711 94.47290039 C-78.8407971 95.89679613 -80.92801269 97.4017638 -83 99 C-82.09797852 99.56376343 -82.09797852 99.56376343 -81.17773438 100.13891602 C-79.89866211 100.93833618 -79.89866211 100.93833618 -78.59375 101.75390625 C-77.154552 102.65338989 -77.154552 102.65338989 -75.6862793 103.57104492 C-73.53406185 104.91620144 -71.3818818 106.26141778 -69.22973633 107.60668945 C-63.73083498 111.04385174 -58.23143493 114.48020523 -52.73046875 117.9140625 C-42.78459093 124.12384419 -32.84405499 130.3412825 -22.94018555 136.61791992 C-22.25867432 137.04951416 -21.57716309 137.4811084 -20.875 137.92578125 C-19.80378906 138.64749512 -19.80378906 138.64749512 -18.7109375 139.38378906 C-16.44643288 140.73384495 -14.33011536 141.7299398 -11.9140625 142.74902344 C-7.3412493 144.84942966 -3.12965442 146.95207652 0 151 C2.59600741 158.50491657 1.50072484 166.84368868 1 174.625 C0.91965412 176.79531062 0.84666546 178.96590682 0.78125 181.13671875 C0.60576448 186.43075572 0.33895293 191.71404447 0 197 C-3.6289894 195.66438642 -6.69851057 194.04017 -9.921875 191.91015625 C-10.85628418 191.29624023 -11.79069336 190.68232422 -12.75341797 190.04980469 C-13.74229004 189.39399414 -14.73116211 188.73818359 -15.75 188.0625 C-17.83056012 186.69375343 -19.91129051 185.32526563 -21.9921875 183.95703125 C-23.01538086 183.28236816 -24.03857422 182.60770508 -25.09277344 181.91259766 C-29.00685107 179.33761578 -32.93835744 176.79029807 -36.875 174.25 C-38.24090069 173.36721114 -39.60678625 172.48439886 -40.97265625 171.6015625 C-41.63668457 171.17262695 -42.30071289 170.74369141 -42.98486328 170.30175781 C-53.51760168 163.497716 -64.03939939 156.67705662 -74.55126953 149.84082031 C-79.92607509 146.34610784 -85.30458871 142.85721351 -90.6875 139.375 C-91.37207275 138.93188477 -92.05664551 138.48876953 -92.76196289 138.03222656 C-96.33264816 135.72180797 -99.9064583 133.41639326 -103.484375 131.1171875 C-104.60259644 130.39716553 -104.60259644 130.39716553 -105.7434082 129.66259766 C-107.14193415 128.76220029 -108.54141204 127.86327859 -109.94213867 126.96630859 C-111.26041691 126.11679164 -112.56716815 125.24914302 -113.86230469 124.36474609 C-116.03422414 122.91859746 -116.03422414 122.91859746 -118.66113281 121.71728516 C-123.24645899 119.23568888 -125.54988897 117.46367322 -127.1159668 112.37109375 C-127.84899627 107.87798652 -127.92587234 103.4184306 -127.875 98.875 C-127.87660126 98.08109863 -127.87820251 97.28719727 -127.87985229 96.46923828 C-127.75999761 83.76819009 -127.75999761 83.76819009 -124.26708984 78.27441406 C-119.77714847 73.95587547 -114.39732963 71.54313241 -108.69335938 69.18457031 C-104.58045372 67.37566728 -101.00950479 64.90409234 -97.3125 62.375 C-95.92580858 61.47250623 -94.53648803 60.57403891 -93.14453125 59.6796875 C-88.92896014 56.95424861 -84.71440036 54.22724878 -80.5 51.5 C-76.28559964 48.77275122 -72.07103986 46.04575139 -67.85546875 43.3203125 C-60.2306175 38.38995756 -52.61192092 33.45029805 -45 28.5 C-38.09154058 24.00718754 -31.17985859 19.51946633 -24.2578125 15.04760742 C-20.5667079 12.6628902 -16.88011287 10.2715483 -13.19921875 7.87109375 C-12.41313232 7.35949707 -11.6270459 6.84790039 -10.81713867 6.32080078 C-9.29918556 5.33271582 -7.78237618 4.34287103 -6.2668457 3.35107422 C-1.11243396 0 -1.11243396 0 0 0 Z " fill="#FFFFFF" transform="translate(162,59)"/>
</svg>