<?xml version="1.0" encoding="UTF-8"?>
<svg version="1.1" xmlns="http://www.w3.org/2000/svg" width="512" height="300">
<path d="M0 0 C46.2 0 92.4 0 140 0 C140 10.89 140 21.78 140 33 C109.97 33 79.94 33 49 33 C57.31413856 43.67790409 57.31413856 43.67790409 66 54 C70.47811099 59.15052198 74.74361852 64.42783907 78.92578125 69.8203125 C82.02313947 73.79881573 85.22208751 77.66936204 88.5 81.5 C89.85783379 83.10128876 91.21348026 84.70439198 92.56787109 86.30859375 C93.56951861 87.49158284 94.57540959 88.6709861 95.58447266 89.84765625 C97.17897123 91.71710147 98.7476001 93.60575255 100.3125 95.5 C100.81136719 96.07556641 101.31023437 96.65113281 101.82421875 97.24414062 C103.17578125 98.90625 103.17578125 98.90625 105 102 C104.29099496 106.69715836 100.65744833 110.17772796 97.6875 113.75 C96.59598161 115.08717642 95.50620008 116.42577211 94.41796875 117.765625 C93.85384277 118.45978516 93.2897168 119.15394531 92.70849609 119.86914062 C89.90707149 123.36311518 87.20509545 126.93126389 84.5 130.5 C79.85936028 136.60807402 75.12919812 142.63229004 70.31738281 148.60620117 C66.31572572 153.58168346 62.41391012 158.62640532 58.546875 163.70703125 C55.08640502 168.18122786 51.5334382 172.58320225 48 177 C97.995 177.495 97.995 177.495 149 178 C149 188.56 149 199.12 149 210 C99.5 210 50 210 -1 210 C-1 186 -1 186 4.4375 178.1875 C7.765625 174.9609375 7.765625 174.9609375 9.43554688 173.45996094 C11.77446468 171.27726298 13.70734195 168.81929584 15.6875 166.3125 C16.40292969 165.43207031 17.11835938 164.55164063 17.85546875 163.64453125 C18.56316406 162.77183594 19.27085937 161.89914063 20 161 C21.499145 159.16596746 22.99915322 157.33264019 24.5 155.5 C25.2425 154.5925 25.985 153.685 26.75 152.75 C42.5 133.5 42.5 133.5 44.75390625 130.74609375 C46.2420221 128.92671038 47.72901612 127.10640881 49.21484375 125.28515625 C54.765449 118.4859087 60.37066608 111.73404663 66 105 C63.71422787 100.89772021 60.94008157 97.40770844 57.875 93.875 C56.88206095 92.71678972 55.88988395 91.55792573 54.8984375 90.3984375 C54.40698242 89.82448242 53.91552734 89.25052734 53.40917969 88.65917969 C51.40556927 86.3001124 49.45143537 83.90230852 47.5 81.5 C44.21176517 77.46016863 40.87278574 73.46907935 37.5 69.5 C33.38016701 64.65179875 29.33204036 59.75154155 25.31640625 54.81640625 C22.72212632 51.66214684 20.08388711 48.54801432 17.4375 45.4375 C12.85023176 40.04202533 8.39198644 34.55600957 4 29 C2.68 27.35 1.36 25.7 0 24 C0 16.08 0 8.16 0 0 Z " fill="#FFFFFF" transform="translate(183,54)"/>
<path d="M0 0 C5.0701571 1.68857891 9.22584753 4.61635562 13.63671875 7.5546875 C14.91960533 8.40167709 14.91960533 8.40167709 16.22840881 9.26577759 C19.05105374 11.13110479 21.86929164 13.00297797 24.6875 14.875 C26.66612406 16.18457285 28.64496842 17.4938129 30.62402344 18.80273438 C39.56612384 24.72125076 48.49508845 30.65950881 57.41789246 36.60707092 C59.21882139 37.80745707 61.02017962 39.00719942 62.82197571 40.20628357 C67.21220384 43.13013116 71.59207213 46.06756733 75.95336914 49.03442383 C84.05617954 54.52598082 92.16177513 59.75546767 100.7421875 64.47265625 C121.18260461 75.91218415 121.18260461 75.91218415 124.50830078 83.39257812 C126.31911505 91.20889103 126.56494662 99.66347083 123 107 C119.74832211 110.39802002 116.02962445 112.6156957 112 115 C110.38616956 116.06909006 108.77250454 117.13849289 107.16667175 118.21955872 C104.79674235 119.80869801 102.40419335 121.36226241 100.01251221 122.918396 C97.25805116 124.71105018 94.50834225 126.51094316 91.75817871 128.31018066 C90.25357489 129.29445091 88.74876889 130.27841214 87.24377441 131.26208496 C77.52529565 137.61447148 67.82289665 143.99124727 58.125 150.375 C57.19706635 150.98543152 56.26913269 151.59586304 55.31307983 152.22479248 C45.40327317 158.74656014 35.51648267 165.29860988 25.703125 171.96484375 C24.90232513 172.50868713 24.10152527 173.05253052 23.27645874 173.612854 C19.5212237 176.16581437 15.77119583 178.72605267 12.02783203 181.29638672 C10.71388764 182.19371484 9.39992401 183.0910148 8.0859375 183.98828125 C7.49234436 184.39924545 6.89875122 184.81020966 6.28717041 185.23362732 C2.2259329 188 2.2259329 188 0 188 C-0.24843695 183.1440131 -0.42917659 178.29176501 -0.54931641 173.4309082 C-0.59941163 171.78051305 -0.6675171 170.13055755 -0.75439453 168.48168945 C-1.45434514 154.84912209 -1.45434514 154.84912209 1.94091797 150.53222656 C4.53982413 148.70061651 7.12462196 147.34999125 10 146 C11.56510269 145.0006184 13.1153358 143.97749911 14.6484375 142.9296875 C16.22279594 141.90966199 17.79835489 140.89148745 19.375 139.875 C21.13284376 138.73702746 22.89065535 137.59900521 24.6484375 136.4609375 C25.5362793 135.88698242 26.42412109 135.31302734 27.33886719 134.72167969 C31.56386422 131.98822289 35.78169528 129.24376825 40 126.5 C41.66662944 125.4166094 43.33329618 124.33327618 45 123.25 C45.825 122.71375 46.65 122.1775 47.5 121.625 C68.75 107.8125 68.75 107.8125 90 94 C83.14030827 89.13308861 76.18285795 84.44896357 69.125 79.875 C67.62779419 78.90167725 67.62779419 78.90167725 66.1003418 77.90869141 C64.05257225 76.577698 62.00431644 75.24745243 59.95556641 73.91796875 C57.22322164 72.1448562 54.49214871 70.36980928 51.76171875 68.59375 C48.47717063 66.45739584 45.19204273 64.32193943 41.90625 62.1875 C38.57230654 60.02177033 35.23900285 57.8550614 31.90625 55.6875 C31.06247803 55.14158203 30.21870605 54.59566406 29.34936523 54.03320312 C27.66650404 52.9332134 25.99388424 51.81738399 24.33227539 50.68554688 C20.30299109 47.96861679 16.51350375 45.70494739 11.96484375 43.96875 C6.89139573 41.83572412 2.67718186 40.02712023 0 35 C-2.11415601 23.5081445 -1.02735152 11.57048841 0 0 Z " fill="#FFFFFF" transform="translate(352,64)"/>
<path d="M0 0 C4.10264711 29.26474015 4.10264711 29.26474015 -2.22949219 38.11669922 C-8.24765118 43.45897266 -15.35122258 46.95235766 -22.58886719 50.33691406 C-27.48366457 52.7233555 -31.88394514 55.68891011 -36.375 58.75 C-37.98432312 59.80095346 -39.59628887 60.84787196 -41.2109375 61.890625 C-46.96442845 65.62580168 -52.71587784 69.36411774 -58.46630859 73.10400391 C-62.8289115 75.9408595 -67.19395116 78.7738702 -71.5625 81.6015625 C-72.47257812 82.19130859 -73.38265625 82.78105469 -74.3203125 83.38867188 C-76.06435269 84.51873873 -77.80910772 85.64770338 -79.5546875 86.77539062 C-80.73417969 87.54012695 -80.73417969 87.54012695 -81.9375 88.3203125 C-82.62714844 88.76648926 -83.31679687 89.21266602 -84.02734375 89.67236328 C-86.07286202 91.04903758 -88.04020563 92.5043963 -90 94 C-89.00484375 94.64324219 -88.0096875 95.28648437 -86.984375 95.94921875 C-76.49542908 102.7313149 -66.01920933 109.53280944 -55.54833984 116.34277344 C-52.19639708 118.52259596 -48.84396452 120.70166439 -45.49145508 122.88061523 C-43.8336659 123.95813759 -42.17595076 125.03577387 -40.51831055 126.11352539 C-36.25319928 128.88645481 -31.98693722 131.6575884 -27.71875 134.42578125 C-1.68233813 151.31766187 -1.68233813 151.31766187 0 153 C0.08851529 155.59359322 0.11525945 158.16039691 0.09765625 160.75390625 C0.0962413 161.52935287 0.09482635 162.3047995 0.09336853 163.10374451 C0.08775345 165.59003494 0.07519846 168.0762366 0.0625 170.5625 C0.05748694 172.24413933 0.0529237 173.92578006 0.04882812 175.60742188 C0.03777913 179.73831566 0.02050445 183.86914276 0 188 C-7.65034839 184.06079622 -14.69639628 179.26266806 -21.81811523 174.46246338 C-25.71996057 171.84715298 -29.65032719 169.27531447 -33.578125 166.69921875 C-35.3133281 165.55955322 -37.04843315 164.41973838 -38.78344727 163.27978516 C-39.67428009 162.69449036 -40.56511292 162.10919556 -41.48294067 161.50616455 C-60.07122812 149.28891315 -78.56428737 136.93819304 -96.97558594 124.45581055 C-97.83009338 123.87789764 -98.68460083 123.29998474 -99.56500244 122.70455933 C-101.20553751 121.59175512 -102.84236549 120.47346184 -104.47503662 119.34915161 C-107.77690251 117.08916638 -111.01849556 114.91510718 -114.59960938 113.12182617 C-121.48164366 109.55268605 -121.48164366 109.55268605 -123.0090332 104.97753906 C-123.48715421 101.26932448 -123.50305983 97.7975785 -123.375 94.0625 C-123.41753906 92.82564453 -123.46007812 91.58878906 -123.50390625 90.31445312 C-123.44715707 85.4881934 -123.34359004 81.60218523 -120.15942383 77.80517578 C-117.82185777 76.06385514 -115.43485141 74.55762866 -112.90246582 73.11691284 C-109.94200428 71.37886453 -107.11929821 69.44270834 -104.27003479 67.52952576 C-101.69716596 65.80565434 -99.11105191 64.10354743 -96.52026367 62.40673828 C-90.71255921 58.60286393 -84.90994662 54.7913044 -79.109375 50.9765625 C-78.10690231 50.31747894 -77.10442963 49.65839539 -76.07157898 48.9793396 C-66.47452307 42.66454333 -56.91495003 36.29422754 -47.36257935 29.91210938 C-22.49826653 13.30129497 -22.49826653 13.30129497 -11 5.75 C-10.08049561 5.14172363 -9.16099121 4.53344727 -8.21362305 3.90673828 C-7.40062744 3.3754834 -6.58763184 2.84422852 -5.75 2.296875 C-5.06421875 1.84666992 -4.3784375 1.39646484 -3.671875 0.93261719 C-2 0 -2 0 0 0 Z " fill="#FFFFFF" transform="translate(160,64)"/>
</svg>